HIERARCHY
ROOT Hips
{
	OFFSET -3.958830 18.904000 13.208200
	CHANNELS 6 Xposition Yposition Zposition Zrotation Yrotation Xrotation 
	JOINT LHipJoint
	{
		OFFSET 0.000000 0.000000 0.000000
		CHANNELS 3 Zrotation Yrotation Xrotation
		JOINT LeftUpLeg
		{
			OFFSET 1.800000 -1.400000 0.085000
			CHANNELS 3 Zrotation Yrotation Xrotation
			JOINT LeftLeg
			{
				OFFSET 2.215000 -6.000000 0.000000
				CHANNELS 3 Zrotation Yrotation Xrotation
				JOINT LeftFoot
				{
					OFFSET 2.500000 -6.900000 0.000000
					CHANNELS 3 Zrotation Yrotation Xrotation
					JOINT LeftToeBase
					{
						OFFSET 0.200000 -0.500000 1.950000
						CHANNELS 3 Zrotation Yrotation Xrotation
						End Site
						{
							OFFSET 0.000000 0.000000 0.000000
						}
					}
				}
			}
		}
	}
	JOINT RHipJoint
	{
		OFFSET 0.000000 0.000000 0.000000
		CHANNELS 3 Zrotation Yrotation Xrotation
		JOINT RightUpLeg
		{
			OFFSET -1.800000 -1.400000 0.085000
			CHANNELS 3 Zrotation Yrotation Xrotation
			JOINT RightLeg
			{
				OFFSET -2.215000 -6.000000 0.000000
				CHANNELS 3 Zrotation Yrotation Xrotation
				JOINT RightFoot
				{
					OFFSET -2.500000 -6.900000 0.000000
					CHANNELS 3 Zrotation Yrotation Xrotation
					JOINT RightToeBase
					{
						OFFSET -0.200000 -0.500000 1.950000
						CHANNELS 3 Zrotation Yrotation Xrotation
						End Site
						{
							OFFSET 0.000000 0.000000 0.000000
						}
					}
				}
			}
		}
	}
	JOINT LowerBack
	{
		OFFSET 0.000000 0.000000 0.000000
		CHANNELS 3 Zrotation Yrotation Xrotation
		JOINT Spine
		{
			OFFSET -0.087000 1.940000 -0.288900
			CHANNELS 3 Zrotation Yrotation Xrotation
			JOINT Spine1
			{
				OFFSET 0.000000 1.950000 0.060000
				CHANNELS 3 Zrotation Yrotation Xrotation
				JOINT Neck
				{
					OFFSET 0.000000 0.000000 0.000000
					CHANNELS 3 Zrotation Yrotation Xrotation
					JOINT Neck1
					{
						OFFSET 0.000000 1.600000 0.340000
						CHANNELS 3 Zrotation Yrotation Xrotation
						JOINT Head
						{
							OFFSET 0.000000 1.667000 -0.240000
							CHANNELS 3 Zrotation Yrotation Xrotation
							End Site
							{
								OFFSET 0.000000 0.000000 0.000000
							}
						}
					}
				}
				JOINT LeftShoulder
				{
					OFFSET 0.000000 0.000000 0.000000
					CHANNELS 3 Zrotation Yrotation Xrotation
					JOINT LeftArm
					{
						OFFSET 2.700000 1.550000 -0.730000
						CHANNELS 3 Zrotation Yrotation Xrotation
						JOINT LeftForeArm
						{
							OFFSET 5.450000 0.000000 0.000000
							CHANNELS 3 Zrotation Yrotation Xrotation
							JOINT LeftHand
							{
								OFFSET 3.450000 0.000000 0.000000
								CHANNELS 3 Zrotation Yrotation Xrotation
								JOINT LeftHandIndex1
								{
									OFFSET 0.750000 0.000000 0.000000
									CHANNELS 3 Zrotation Yrotation Xrotation
									End Site
									{
										OFFSET 0.000000 0.000000 0.000000
									}
								}
							}
						}
					}
				}
				JOINT RightShoulder
				{
					OFFSET 0.000000 0.000000 0.000000
					CHANNELS 3 Zrotation Yrotation Xrotation
					JOINT RightArm
					{
						OFFSET -2.700000 1.550000 -0.730000
						CHANNELS 3 Zrotation Yrotation Xrotation
						JOINT RightForeArm
						{
							OFFSET -5.450000 0.000000 0.000000
							CHANNELS 3 Zrotation Yrotation Xrotation
							JOINT RightHand
							{
								OFFSET -3.450000 0.000000 0.000000
								CHANNELS 3 Zrotation Yrotation Xrotation
								JOINT RightHandIndex1
								{
									OFFSET -0.750000 0.000000 0.000000
									CHANNELS 3 Zrotation Yrotation Xrotation
									End Site
									{
										OFFSET 0.000000 0.000000 0.000000
									}
								}
							}
						}
					}
				}
			}
		}
	}
}
MOTION
Frames: 5
Frame Time: 0.016667
-0.745810 16.616200 -1.796650 -17.727079 -19.564339 1.563159 -15.356750 11.292803 3.095376 11.818013 -5.110951 -27.745370 -15.886052 12.768170 31.488929 0.204546 7.110411 1.838988 0.496550 0.491560 0.369270 18.610398 -7.029281 6.321373 -20.050316 14.037308 -58.908302 21.871725 -36.505559 80.041356 -3.345774 -16.140816 -0.584891 0.273890 -0.176020 0.086560 -4.048599 -3.264113 -9.424580 16.615366 -10.297513 48.256611 -6.093228 -3.926149 2.051744 1.961340 -8.926931 -8.865300 -19.008905 8.568369 31.798628 -4.261050 3.773800 -21.029100 -22.852145 -9.024684 1.368975 -13.784831 -0.085910 -8.040667 -42.923656 -71.927259 26.820948 -3.411551 3.462158 0.418950 -0.169360 0.283160 0.099290 18.835422 13.767969 6.537194 19.343823 -2.991800 -11.168374 41.073342 74.331132 24.655280 2.194282 -1.813082 0.006250 0.192810 -0.146280 -0.120370 
-0.678420 16.597970 -1.790430 -17.665366 -20.160870 1.097212 -15.373262 11.367574 3.100577 11.467338 -5.194926 -27.526021 -15.813699 12.875552 32.044613 0.224581 7.183496 1.811061 0.497880 0.488450 0.384010 18.581259 -6.995757 6.314836 -20.209504 14.179368 -58.254240 22.031213 -37.244218 80.910870 -3.417087 -16.343881 -0.624222 0.265870 -0.196890 0.086370 -3.986997 -3.440845 -9.436707 16.738158 -10.401714 49.405934 -5.888303 -3.831780 1.247244 2.121610 -9.032540 -8.891908 -19.762196 8.918364 32.885553 -5.097280 3.816950 -20.954920 -24.421595 -10.164671 1.129468 -14.888512 -1.593274 -8.426291 -34.334530 -66.810925 19.142697 -3.361903 3.422317 0.430180 -0.180830 0.297190 0.091400 20.068910 14.924451 6.879340 19.733148 -2.677643 -11.638414 40.747402 74.514097 24.360711 2.195956 -1.805924 0.011150 0.189270 -0.147370 -0.127280 
-0.583510 16.543450 -1.778420 -17.799439 -21.809166 1.175671 -15.405558 11.421275 3.186492 11.333139 -5.327307 -27.934276 -16.216793 13.258032 32.758559 0.256767 7.377477 1.735969 0.490710 0.473870 0.407060 18.535469 -6.924052 6.262322 -19.569089 15.056602 -57.115878 21.335531 -38.199198 83.489442 -3.548642 -16.803166 -0.718594 0.261150 -0.221180 0.078200 -3.905981 -3.689039 -9.469342 16.797344 -10.408911 50.155180 -5.627626 -3.662121 -0.338564 2.279846 -9.361230 -8.955910 -21.488957 10.756072 34.571190 -6.889610 4.922100 -19.723010 -27.760383 -11.974534 0.872141 -16.880263 -4.060467 -8.457549 -19.203641 -55.707600 8.200843 -3.324176 3.300630 0.431610 -0.181080 0.300110 0.071100 23.064476 16.825890 7.232663 20.303149 -1.018672 -11.946435 40.975122 73.437998 23.857944 2.211337 -1.801078 0.005920 0.180490 -0.143910 -0.146380 
-0.492240 16.525850 -1.753730 -17.544662 -23.511303 1.628679 -15.433748 11.394320 3.401300 11.707779 -5.572818 -28.546540 -18.478579 13.941500 32.210733 0.320591 7.624524 1.643960 0.484690 0.455840 0.435530 18.485066 -6.898881 6.105065 -18.328934 15.701989 -54.890727 20.840542 -38.789139 85.104639 -3.636400 -17.072586 -0.774729 0.250350 -0.246070 0.073400 -3.830888 -3.840553 -9.532751 16.247786 -10.209462 49.706599 -5.544621 -3.638501 -1.581487 2.426786 -9.289089 -9.224618 -22.767716 12.683700 37.628194 -8.317050 6.216920 -18.010670 -31.149919 -13.709682 1.157418 -19.245645 -5.766041 -8.036360 -7.934962 -44.047527 2.373152 -3.312901 3.170742 0.436540 -0.182390 0.306810 0.050970 26.151617 18.499113 7.301489 22.373815 1.549123 -12.126879 39.660150 69.311000 21.244228 2.222792 -1.771743 0.003510 0.166130 -0.143760 -0.166470 
-0.403820 16.510400 -1.728070 -17.105129 -24.686881 2.496906 -15.455919 11.450436 3.621318 11.079622 -6.075232 -29.805079 -19.331845 14.219102 32.531215 0.333773 7.777819 1.587701 0.440280 0.388080 0.439550 18.429206 -6.970688 5.864354 -16.718046 16.023092 -51.410010 20.431236 -38.213673 85.068386 -3.594971 -16.959345 -0.761645 0.223300 -0.247480 0.064760 -3.723304 -4.022687 -9.549077 15.417122 -9.957140 48.913952 -5.232818 -3.678951 -3.316593 2.529249 -8.942825 -9.721698 -23.111618 14.791034 40.311495 -9.511380 8.232690 -15.795970 -34.682806 -15.086777 1.932626 -20.882367 -6.073567 -6.290802 -3.273460 -28.998178 0.433289 -3.371981 3.046091 0.447320 -0.163770 0.286720 0.013790 29.588288 19.689900 7.114938 24.959519 3.474409 -12.322988 36.027340 63.350723 16.956728 2.208430 -1.717449 -0.026870 0.151430 -0.114090 -0.200690 
